<?xml version="1.0" encoding="UTF-8" standalone="no"?>
<!-- Created with Inkscape (http://www.inkscape.org/) -->

<svg
   width="900"
   height="1000"
   viewBox="0 0 238.125 264.58333"
   version="1.1"
   id="svg1"
   inkscape:version="1.4.2 (ebf0e940, 2025-05-08)"
   sodipodi:docname="1.svg"
   xmlns:inkscape="http://www.inkscape.org/namespaces/inkscape"
   xmlns:sodipodi="http://sodipodi.sourceforge.net/DTD/sodipodi-0.dtd"
   xmlns="http://www.w3.org/2000/svg"
   xmlns:svg="http://www.w3.org/2000/svg"
   xmlns:rdf="http://www.w3.org/1999/02/22-rdf-syntax-ns#"
   xmlns:cc="http://creativecommons.org/ns#"
   xmlns:dc="http://purl.org/dc/elements/1.1/">
  <defs
     id="defs1" />
  <sodipodi:namedview
     id="base"
     pagecolor="#ffffff"
     bordercolor="#000000"
     borderopacity="0.3"
     inkscape:pageopacity="0.0"
     inkscape:pageshadow="2"
     inkscape:zoom="0.78549771"
     inkscape:cx="317.63301"
     inkscape:cy="550.60631"
     inkscape:document-units="px"
     inkscape:showpageshadow="2"
     inkscape:pagecheckerboard="0"
     inkscape:deskcolor="#d1d1d1"
     showborder="true"
     inkscape:window-width="1800"
     inkscape:window-height="1126"
     inkscape:window-x="0"
     inkscape:window-y="43"
     inkscape:window-maximized="0"
     inkscape:current-layer="layer4" />
  <metadata
     id="metadata1">
    <rdf:RDF>
      <cc:Work
         rdf:about="">
        <dc:format>image/svg+xml</dc:format>
        <dc:type
           rdf:resource="http://purl.org/dc/dcmitype/StillImage" />
      </cc:Work>
    </rdf:RDF>
  </metadata>
  <g
     inkscape:groupmode="layer"
     id="layer4"
     inkscape:label="特殊"
     style="display:inline"
     sodipodi:insensitive="true">
    <path
       id="path16"
       style="display:inline;stroke-width:0.0483821"
       d="m 15.228528,162.05729 v 6.61458 1.32292 h 1.322916 6.614584 v -1.32292 h -6.614584 v -6.61458 z m 47.624999,0 v 6.61458 h -6.614583 v 1.32292 h 6.614583 1.322917 v -1.32292 -6.61458 z m 5.291667,0 v 6.61458 1.32292 h 1.322917 6.614583 v -1.32292 h -6.614583 v -6.61458 z m 47.624996,0 v 6.61458 h -6.61458 v 1.32292 h 6.61458 1.32292 v -1.32292 -6.61458 z m 5.29167,0 v 6.61458 1.32292 h 1.32292 6.61458 v -1.32292 h -6.61458 v -6.61458 z m 47.625,0 v 6.61458 h -6.61458 v 1.32292 h 6.61458 1.32292 v -1.32292 -6.61458 z m 5.29167,0 v 6.61458 1.32292 h 1.32291 6.61459 v -1.32292 h -6.61459 v -6.61458 z m 47.625,0 v 6.61458 h -6.61459 v 1.32292 h 6.61459 1.32291 v -1.32292 -6.61458 z M 15.213542,173.96354 v 1.32292 6.61458 h 1.322916 v -6.61458 h 6.614584 v -1.32292 h -6.614584 z m 41.010416,0 v 1.32292 h 6.614583 v 6.61458 h 1.322917 v -6.61458 -1.32292 h -1.322917 z m 11.90625,0 v 1.32292 6.61458 h 1.322917 v -6.61458 h 6.614583 v -1.32292 h -6.614583 z m 41.010412,0 v 1.32292 h 6.61459 v 6.61458 h 1.32291 v -6.61458 -1.32292 h -1.32291 z m 11.90625,0 v 1.32292 6.61458 h 1.32292 v -6.61458 h 6.61458 v -1.32292 h -6.61458 z m 41.01042,0 v 1.32292 h 6.61458 v 6.61458 h 1.32292 v -6.61458 -1.32292 h -1.32292 z m 11.90625,0 v 1.32292 6.61458 h 1.32292 v -6.61458 h 6.61458 v -1.32292 h -6.61458 z m 41.01042,0 v 1.32292 h 6.61458 v 6.61458 h 1.32292 v -6.61458 -1.32292 h -1.32292 z"
       inkscape:label="下卒林" />
    <path
       id="path16-0"
       style="display:inline;stroke-width:0.0483821"
       d="m 15.228528,82.682291 v 6.614583 1.322917 h 1.322916 6.614584 v -1.322917 h -6.614584 v -6.614583 z m 47.624999,0 v 6.614583 h -6.614583 v 1.322917 h 6.614583 1.322917 v -1.322917 -6.614583 z m 5.291667,0 v 6.614583 1.322917 h 1.322917 6.614583 v -1.322917 h -6.614583 v -6.614583 z m 47.624996,0 v 6.614583 h -6.61458 v 1.322917 h 6.61458 1.32292 v -1.322917 -6.614583 z m 5.29167,0 v 6.614583 1.322917 h 1.32292 6.61458 v -1.322917 h -6.61458 v -6.614583 z m 47.625,0 v 6.614583 h -6.61458 v 1.322917 h 6.61458 1.32292 v -1.322917 -6.614583 z m 5.29167,0 v 6.614583 1.322917 h 1.32291 6.61459 v -1.322917 h -6.61459 v -6.614583 z m 47.625,0 v 6.614583 h -6.61459 v 1.322917 h 6.61459 1.32291 V 89.296874 82.682291 Z M 15.213542,94.588541 v 1.322917 6.614582 h 1.322916 v -6.614582 h 6.614584 v -1.322917 h -6.614584 z m 41.010416,0 v 1.322917 h 6.614583 v 6.614582 h 1.322917 v -6.614582 -1.322917 h -1.322917 z m 11.90625,0 v 1.322917 6.614582 h 1.322917 v -6.614582 h 6.614583 v -1.322917 h -6.614583 z m 41.010412,0 v 1.322917 h 6.61459 v 6.614582 h 1.32291 v -6.614582 -1.322917 h -1.32291 z m 11.90625,0 v 1.322917 6.614582 h 1.32292 v -6.614582 h 6.61458 v -1.322917 h -6.61458 z m 41.01042,0 v 1.322917 h 6.61458 v 6.614582 h 1.32292 v -6.614582 -1.322917 h -1.32292 z m 11.90625,0 v 1.322917 6.614582 h 1.32292 v -6.614582 h 6.61458 v -1.322917 h -6.61458 z m 41.01042,0 v 1.322917 h 6.61458 v 6.614582 h 1.32292 v -6.614582 -1.322917 h -1.32292 z"
       inkscape:label="上卒林" />
    <path
       id="rect1-9-3-49-3-2-7-3-3-6-1-5-1-26-0-5-3"
       style="display:inline;stroke-width:0.0483821"
       d="m 195.16016,188.51562 v 6.61459 h -6.61458 v 1.32291 h 6.61458 1.32292 v -1.32291 -6.61459 z m 5.29167,0 v 6.61459 1.32291 h 1.32292 6.61458 v -1.32291 h -6.61458 v -6.61459 z m -11.92124,11.90625 v 1.32292 h 6.61459 v 6.61458 h 1.32291 v -6.61458 -1.32292 h -1.32291 z m 11.90625,0 v 1.32292 6.61458 h 1.32292 v -6.61458 h 6.61458 v -1.32292 h -6.61458 z"
       inkscape:label="右下炮" />
    <path
       id="rect1-9-3-49-3-2-7-3-3-6-1-5-1-26-0-4"
       style="display:inline;stroke-width:0.0483821"
       d="m 36.395194,188.51562 v 6.61458 h -6.614583 v 1.32292 h 6.614583 1.322917 v -1.32292 -6.61458 z m 5.291667,0 v 6.61458 1.32292 h 1.322916 6.614584 v -1.32292 h -6.614584 v -6.61458 z m -11.921236,11.90625 v 1.32292 h 6.614583 v 6.61458 h 1.322917 v -6.61458 -1.32292 h -1.322917 z m 11.90625,0 v 1.32292 6.61458 h 1.322916 v -6.61458 h 6.614584 v -1.32292 h -6.614584 z"
       inkscape:label="左下炮" />
    <path
       id="rect1-9-3-49-3-2-7-3-3-6-1-5-1-26-0-5"
       style="display:inline;stroke-width:0.0483821"
       d="m 195.14519,56.223958 v 6.61459 h -6.61458 v 1.32291 h 6.61458 1.32292 v -1.32291 -6.61459 z m 5.29167,0 v 6.61459 1.32291 h 1.32292 6.61458 v -1.32291 h -6.61458 v -6.61459 z m -11.92124,11.90625 v 1.32292 h 6.61459 v 6.61458 h 1.32291 v -6.61458 -1.32292 h -1.32291 z m 11.90625,0 v 1.32292 6.61458 h 1.32292 v -6.61458 h 6.61458 v -1.32292 h -6.61458 z"
       inkscape:label="右上炮" />
    <path
       id="rect1-9-3-49-3-2-7-3-3-6-1-5-1-26-0"
       style="stroke-width:0.0483821"
       d="m 56.223958,-36.380208 h 6.614583 v 6.614583 h 1.322917 v -6.614583 -1.322917 h -1.322917 -6.614583 z m 0,-5.291667 h 6.614583 1.322917 v -1.322916 -6.614584 h -1.322917 v 6.614584 h -6.614583 z m 11.90625,11.921236 h 1.322917 v -6.614583 h 6.614583 v -1.322917 h -6.614583 -1.322917 v 1.322917 z m 0,-11.90625 h 1.322917 6.614583 v -1.322916 h -6.614583 v -6.614584 h -1.322917 v 6.614584 z"
       transform="rotate(90)"
       inkscape:label="左上炮" />
  </g>
  <g
     inkscape:groupmode="layer"
     id="layer1"
     inkscape:label="横线"
     sodipodi:insensitive="true"
     style="display:inline">
    <path
       id="rect1-9-8"
       style="fill:#000000;stroke-width:0.250623;stroke-dasharray:none"
       d="m 12.567708,12.567708 v 1.322917 H 225.55729 v -1.322917 z m 0,26.458333 v 1.322917 H 225.55729 v -1.322917 z m 0,26.458334 v 1.322916 H 225.55729 v -1.322916 z m 0,26.458333 v 1.322916 H 225.55729 v -1.322916 z m 0,26.458332 v 1.32292 H 225.55729 v -1.32292 z m 0,26.45833 v 1.32292 H 225.55729 v -1.32292 z m 0,26.45834 v 1.32291 H 225.55729 v -1.32291 z m 0,26.45833 v 1.32292 H 225.55729 v -1.32292 z m 0,26.45833 v 1.32292 H 225.55729 v -1.32292 z m 0,26.45834 v 1.32291 H 225.55729 v -1.32291 z" />
  </g>
  <g
     inkscape:groupmode="layer"
     id="layer3"
     inkscape:label="竖线"
     sodipodi:insensitive="true"
     style="display:inline">
    <path
       id="rect1-9-3-49-3-2-7-3-3-6-1-5-1-2"
       style="fill:#000000;stroke-width:0.177767;stroke-dasharray:none"
       d="m 39.026041,144.85937 v 107.15625 h 1.322917 V 144.85937 Z m 26.458334,0 v 107.15625 h 1.322916 V 144.85937 Z m 26.458333,0 v 107.15625 h 1.322916 V 144.85937 Z m 26.458332,0 v 107.15625 h 1.32292 V 144.85937 Z m 26.45833,0 v 107.15625 h 1.32292 V 144.85937 Z m 26.45834,0 v 107.15625 h 1.32291 V 144.85937 Z m 26.45833,0 v 107.15625 h 1.32292 V 144.85937 Z"
       inkscape:label="下" />
    <path
       id="rect1-9-3-49-3-2-7"
       style="fill:#000000;stroke-width:0.177767;stroke-dasharray:none"
       d="M 39.026041,12.567708 V 119.72396 h 1.322917 V 12.567708 Z m 26.458334,0 V 119.72396 h 1.322916 V 12.567708 Z m 26.458333,0 V 119.72396 h 1.322916 V 12.567708 Z m 26.458332,0 V 119.72396 h 1.32292 V 12.567708 Z m 26.45833,0 V 119.72396 h 1.32292 V 12.567708 Z m 26.45834,0 V 119.72396 h 1.32291 V 12.567708 Z m 26.45833,0 V 119.72396 h 1.32292 V 12.567708 Z"
       inkscape:label="上" />
    <rect
       style="fill:#000000;stroke-width:0.265735;stroke-dasharray:none"
       id="rect1-9-3-49-3-2"
       width="1.3229166"
       height="239.44792"
       x="224.23438"
       y="12.567708"
       inkscape:label="右" />
    <rect
       style="fill:#000000;stroke-width:0.265735;stroke-dasharray:none"
       id="rect1-9-3-49-3"
       width="1.3229166"
       height="239.44792"
       x="12.567708"
       y="12.567708"
       inkscape:label="左" />
  </g>
  <g
     inkscape:groupmode="layer"
     id="layer2"
     inkscape:label="九宫"
     sodipodi:insensitive="true"
     style="display:inline">
    <path
       id="path14"
       style="stroke-width:0.149123"
       d="m 92.878051,197.77604 -0.935343,0.93534 26.192712,26.19272 -26.192712,26.1922 0.935343,0.93534 26.192719,-26.1922 26.1922,26.1922 0.93534,-0.93534 -26.1922,-26.1922 26.1922,-26.19272 -0.93534,-0.93534 -26.1922,26.19272 z"
       inkscape:label="下九宫" />
    <path
       id="path9"
       style="stroke-width:0.149123"
       d="m 92.878051,12.567708 -0.935343,0.935344 26.192712,26.192716 -26.192712,26.1922 0.935343,0.935343 26.192719,-26.1922 26.1922,26.1922 0.93534,-0.935343 -26.1922,-26.1922 26.1922,-26.192716 -0.93534,-0.935344 -26.1922,26.192717 z"
       inkscape:label="上九宫" />
  </g>
</svg>
