<?xml version="1.0" encoding="UTF-8" standalone="no"?>
<!-- Created with Inkscape (http://www.inkscape.org/) -->

<svg
   width="100"
   height="100"
   viewBox="0 0 26.458334 26.458333"
   version="1.1"
   id="svg1"
   xmlns="http://www.w3.org/2000/svg"
   xmlns:svg="http://www.w3.org/2000/svg">
  <defs
     id="defs1" />
  <path
     id="rect1"
     style="fill:#29B6F6;fill-opacity:1;stroke:none;stroke-width:0.538058"
     d="M 0 0 L 0 1.3229167 L 0 6.6145834 L 1.3229167 6.6145834 L 1.3229167 1.3229167 L 6.6145834 1.3229167 L 6.6145834 0 L 1.3229167 0 L 0 0 z M 19.84375 0 L 19.84375 1.3229167 L 25.135417 1.3229167 L 25.135417 6.6145834 L 26.458333 6.6145834 L 26.458333 1.3229167 L 26.458333 0 L 25.135417 0 L 19.84375 0 z M 0 19.84375 L 0 25.135417 L 0 26.458333 L 1.3229167 26.458333 L 6.6145834 26.458333 L 6.6145834 25.135417 L 1.3229167 25.135417 L 1.3229167 19.84375 L 0 19.84375 z M 25.135417 19.84375 L 25.135417 25.135417 L 19.84375 25.135417 L 19.84375 26.458333 L 25.135417 26.458333 L 26.458333 26.458333 L 26.458333 25.135417 L 26.458333 19.84375 L 25.135417 19.84375 z " />
</svg>
